<svg version="1.1" xmlns="http://www.w3.org/2000/svg" viewBox="0 0 369.64999999999986 272" width="369.64999999999986" height="272" filter="invert(93%) hue-rotate(180deg)">
  <!-- svg-source:excalidraw -->
  
  <defs>
    <style class="style-fonts">
      @font-face {
        font-family: "Virgil";
        src: url("https://excalidraw.com/Virgil.woff2");
      }
      @font-face {
        font-family: "Cascadia";
        src: url("https://excalidraw.com/Cascadia.woff2");
      }
    </style>
    
  </defs>
  <rect x="0" y="0" width="369.64999999999986" height="272" fill="#ffffff"></rect><g stroke-opacity="0.4" fill-opacity="0.4" stroke-linecap="round" transform="translate(23.230000000000018 52.34512404132991) rotate(0 163.5745038346804 100.41743797933508)"><path d="M0 0 C126.15 0, 252.29 0, 327.15 0 M0 0 C78.39 0, 156.78 0, 327.15 0 M327.15 0 C327.15 78.32, 327.15 156.65, 327.15 200.83 M327.15 0 C327.15 62.63, 327.15 125.26, 327.15 200.83 M327.15 200.83 C234.36 200.83, 141.57 200.83, 0 200.83 M327.15 200.83 C256.23 200.83, 185.3 200.83, 0 200.83 M0 200.83 C0 133.33, 0 65.82, 0 0 M0 200.83 C0 145.68, 0 90.53, 0 0" stroke="#2f9e44" stroke-width="1" fill="none"></path></g><g stroke-linecap="round" transform="translate(10 10) rotate(0 174.82499999999993 126)"><path d="M0 0 C92.87 0, 185.75 0, 349.65 0 M0 0 C120.79 0, 241.57 0, 349.65 0 M349.65 0 C349.65 66.33, 349.65 132.66, 349.65 252 M349.65 0 C349.65 96.69, 349.65 193.39, 349.65 252 M349.65 252 C231.31 252, 112.96 252, 0 252 M349.65 252 C275.94 252, 202.23 252, 0 252 M0 252 C0 189.21, 0 126.42, 0 0 M0 252 C0 197.41, 0 142.83, 0 0" stroke="#1e1e1e" stroke-width="1" fill="none"></path></g><g stroke-linecap="round" transform="translate(36.16822103847994 107.43515366156794) rotate(0 107.32282210384801 67.96306737691197)"><path d="M0.09 -0.93 C66.17 -0.16, 128.93 0.22, 213.75 -0.61 M0.04 -0.7 C84.67 1.09, 169.98 0.78, 215.52 -0.48 M213.86 -0.52 C215.43 44.02, 214.77 87.6, 214.3 136.58 M214.76 -0.18 C213.9 29.63, 214.47 56.98, 214.38 135.55 M212.96 135.7 C168.95 135.15, 120.84 138.02, -1.03 136 M213.99 136.46 C158.01 135.42, 102.38 136.08, -0.16 135.72 M-0.25 134.25 C-1.97 90.32, -0.66 42.52, -0.9 -1.14 M-0.73 136.16 C0.13 85.93, -0.76 35.63, -0.76 0.49" stroke="#e64980" stroke-width="1" fill="none"></path></g><g stroke-linecap="round" transform="translate(34.201288415392014 75.22822103847997) rotate(0 149.625 13)"><path d="M-0.89 0.84 C73.06 -1.29, 149 -0.95, 298.15 0.06 M0.66 -0.53 C66.43 0.4, 131.57 0.74, 299.68 -0.29 M299.49 -0.65 C299.02 7.78, 297.59 14.22, 298.46 26.24 M299.09 -0.4 C298.8 6.96, 298.21 15.57, 299.49 25.04 M298.03 27.37 C212.55 24.51, 127.02 23.63, 0.14 24.9 M299.52 25.98 C190.94 24.1, 83.21 24.35, -0.32 25.91 M-0.51 25.8 C-0.66 19.24, 1.68 16.04, -0.49 -1.46 M0.1 26.84 C-1.02 18.08, -0.13 8.37, -0.71 0.58" stroke="#1971c2" stroke-width="1" fill="none"></path></g><g transform="translate(162.1606084837514 80.35322103847997) rotate(0 21.665679931640625 7.875)"><text x="21.665679931640625" y="0" font-family="Virgil, Segoe UI Emoji" font-size="12.6px" fill="#1971c2" text-anchor="middle" style="white-space: pre;" direction="ltr" dominant-baseline="text-before-edge">Navbar</text></g><g stroke-linecap="round" transform="translate(48.4764420769601 133.12723994622385) rotate(0 43.46999999999997 22.99499999999999)"><path d="M1.47 -1.14 C17.71 2.1, 38.82 1.04, 85.45 1.77 M-0.48 -0.49 C24.64 0.23, 47.31 -0.22, 86.26 -0.38 M86.56 0.49 C86.27 17.76, 87.54 34.96, 85.84 45.37 M87.13 -0.37 C86.85 18.91, 87.54 36.84, 86.1 45.33 M87.02 47.53 C54.18 46.11, 19.56 45.89, 0.48 45.2 M86.72 46.48 C66.3 45.65, 44.83 46.24, 0.57 46.78 M0.13 47.98 C-1.98 29.22, 0.96 11.52, -1.26 0.34 M-0.26 46.82 C-0.87 32.96, -1.05 20.74, -0.79 0.63" stroke="#868e96" stroke-width="1" fill="none"></path></g><g transform="translate(77.31155438164762 148.24723994622383) rotate(0 14.6348876953125 7.875)"><text x="14.6348876953125" y="0" font-family="Virgil, Segoe UI Emoji" font-size="12.6px" fill="#868e96" text-anchor="middle" style="white-space: pre;" direction="ltr" dominant-baseline="text-before-edge">Post</text></g><g transform="translate(316.6677207430912 56.979751917340195) rotate(0 14.811286926269531 7.875)"><text x="14.811286926269531" y="0" font-family="Virgil, Segoe UI Emoji" font-size="12.6px" fill="#2f9e44" text-anchor="middle" style="white-space: pre;" direction="ltr" dominant-baseline="text-before-edge">Root</text></g><g stroke-linecap="round" transform="translate(258.46871720379943 107.93002962023797) rotate(0 38.43000000000001 69.30000000000001)"><path d="M1.88 -0.23 C25.95 0.35, 53.29 0.44, 76.13 1.8 M0.25 -0.08 C18.09 0.03, 34.75 0.87, 76.81 0.12 M75.08 -0.02 C75.83 37.28, 76.26 72.64, 78.75 138.27 M76.01 0.89 C76.74 35.04, 76.36 72.28, 76.16 137.77 M76.11 137.48 C46.81 137.14, 17.6 137.85, -1.57 139.32 M77.29 138.71 C53.61 138.29, 30.41 137.51, 0.5 138.35 M1.44 139.87 C0.14 96.94, 1.09 60.19, 1.15 0.2 M0.13 137.79 C0.34 86, 1.77 31.29, -0.32 -0.45" stroke="#f08c00" stroke-width="1" fill="none"></path></g><g transform="translate(274.54633835858453 169.35502962023799) rotate(0 22.352378845214844 7.875)"><text x="22.352378845214844" y="0" font-family="Virgil, Segoe UI Emoji" font-size="12.6px" fill="#f08c00" text-anchor="middle" style="white-space: pre;" direction="ltr" dominant-baseline="text-before-edge">Sidebar</text></g><g stroke-linecap="round"><g transform="translate(356.5 45.28) rotate(0 -172.305 -0.6299999999999955)"><path d="M0 0 C-123.53 -0.45, -247.05 -0.9, -344.61 -1.26 M0 0 C-110.92 -0.41, -221.83 -0.81, -344.61 -1.26" stroke="#1e1e1e" stroke-width="1" fill="none"></path></g></g><mask></mask><g stroke-linecap="round" transform="translate(146.75644207695996 133.99530732313588) rotate(0 43.46999999999997 22.995000000000005)"><path d="M0.41 0.95 C23.25 0.32, 45.35 0.87, 85.74 -0.2 M-0.18 0.71 C24.48 1.45, 49.42 1.04, 86.95 0.36 M88.66 -0.9 C85.9 10.89, 88.81 19.91, 86.98 46.72 M86.27 -0.55 C86.48 10.98, 87.46 22.72, 87.68 45.77 M85.92 45.01 C67.96 46.07, 44.99 44.05, 1.82 45.71 M86.52 46.7 C68.83 45.69, 51.34 45.41, 0.63 46.25 M-0.23 45.32 C1.46 34.84, -2.08 27.96, -0.42 -1.25 M-0.67 46.7 C-0.45 31.59, 0.33 18.33, -0.06 0.13" stroke="#868e96" stroke-width="1" fill="none"></path></g><g transform="translate(175.59155438164748 149.11530732313588) rotate(0 14.6348876953125 7.875)"><text x="14.6348876953125" y="0" font-family="Virgil, Segoe UI Emoji" font-size="12.6px" fill="#868e96" text-anchor="middle" style="white-space: pre;" direction="ltr" dominant-baseline="text-before-edge">Post</text></g><g stroke-linecap="round" transform="translate(47.95386524617595 189.77716311543992) rotate(0 43.46999999999997 22.994999999999976)"><path d="M0.96 -1.12 C31.81 1.08, 63.48 -2.14, 85.79 0.52 M-0.03 0.07 C27.97 0.97, 57.17 1.26, 86.86 -0.59 M87.11 -0.23 C86.78 10.48, 85.28 26.35, 88.55 44.32 M86.98 -0.82 C86.1 15.64, 86.7 31.41, 87.3 45 M87.38 47.16 C63.54 45.84, 38.65 46.87, 1.89 46.54 M87.76 46.4 C65.12 44.54, 42.27 45.8, -0.36 45.38 M0.65 46.62 C-0.23 34.4, -2.07 23.32, -1.36 -0.04 M-0.03 45.18 C-0.91 31.08, 0.34 17.31, -0.29 0.81" stroke="#868e96" stroke-width="1" fill="none"></path></g><g transform="translate(76.78897755086348 204.89716311543992) rotate(0 14.6348876953125 7.875)"><text x="14.6348876953125" y="0" font-family="Virgil, Segoe UI Emoji" font-size="12.6px" fill="#868e96" text-anchor="middle" style="white-space: pre;" direction="ltr" dominant-baseline="text-before-edge">Post</text></g><g stroke-linecap="round" transform="translate(147.12515366156777 188.41700945387197) rotate(0 43.46999999999997 22.995000000000005)"><path d="M0.03 -1.44 C20.06 -0.26, 42.92 -1.18, 85.18 -0.06 M0.7 0.5 C26.59 -0.77, 53.03 -0.48, 87.27 0.09 M85.41 1.47 C88.54 11.6, 87.95 25.26, 86.41 46.08 M86.99 -0.83 C87.05 9.01, 86.39 20.06, 86.94 46.21 M85.56 46.87 C57.65 46.48, 23.72 46.1, -1.43 47.62 M86.86 46.42 C56.9 44.66, 27.13 45.6, -0.25 46.32 M-1.92 46.79 C-1.34 30.71, 0.46 16.74, -0.92 -0.07 M0.62 46.92 C-0.01 36.72, -0.06 24.86, 0.25 0.83" stroke="#868e96" stroke-width="1" fill="none"></path></g><g transform="translate(175.9602659662553 203.53700945387197) rotate(0 14.6348876953125 7.875)"><text x="14.6348876953125" y="0" font-family="Virgil, Segoe UI Emoji" font-size="12.6px" fill="#868e96" text-anchor="middle" style="white-space: pre;" direction="ltr" dominant-baseline="text-before-edge">Post</text></g><g transform="translate(145.57578503699904 18.801506497796254) rotate(0 43.73596954345703 10)"><text x="43.73596954345703" y="0" font-family="Virgil, Segoe UI Emoji" font-size="16px" fill="#1e1e1e" text-anchor="middle" style="white-space: pre;" direction="ltr" dominant-baseline="text-before-edge">Components</text></g><g transform="translate(215.34943277203183 111.14535362435959) rotate(0 14.684654235839844 8.665452909543063)"><text x="29.369308471679688" y="0" font-family="Virgil, Segoe UI Emoji" font-size="13.86472465526891px" fill="#e64980" text-anchor="end" style="white-space: pre;" direction="ltr" dominant-baseline="text-before-edge">Main</text></g></svg>